<svg xmlns="http://www.w3.org/2000/svg" xmlns:xlink="http://www.w3.org/1999/xlink" viewBox="0 0 32.61 32"><defs><style>.cls-1{fill:#fe4746;}.cls-2{clip-path:url(#clip-path);}.cls-3{fill:#fff;}</style><clipPath id="clip-path" transform="translate(0.61)"><circle class="cls-1" cx="16" cy="16" r="16"/></clipPath></defs><g id="Capa_2" data-name="Capa 2"><g id="Capa_1-2" data-name="Capa 1"><circle class="cls-1" cx="16.61" cy="16" r="16"/><g class="cls-2"><path class="cls-3" d="M15.27,7.6v3.27H10c-2.22,0-3.71,2.08-3.71,5.3,0,3.38,1.49,5.2,3.71,5.2h2.15V16.12h4v8.52h2.37v-3h4.14c1.86,0,3.09-.75,3.09-2s-1.18-1.9-2.83-1.9H20.54V14.5h2.2c1.56,0,2.65-.7,2.65-1.9s-1.18-2-3-2H19v-3Z" transform="translate(0.61)"/><path class="cls-3" d="M25,7.6c2.65.61,4.32,2.43,4.32,5A4.73,4.73,0,0,1,28,16a4.74,4.74,0,0,1,1.61,3.7c0,2.57-1.71,4.37-4.46,5H32V7.6Z" transform="translate(0.61)"/><path class="cls-3" d="M2.12,16.2c0-4.64,2.21-7.77,5.68-8.6H1.09l-1.7,9.06,2.35,8h6C4.31,23.83,2.12,20.84,2.12,16.2Z" transform="translate(0.61)"/></g></g></g></svg>