<svg xmlns="http://www.w3.org/2000/svg" viewBox="0 0 248.08 70.36"><defs><style>.cls-1{fill:#fff;}</style></defs><g id="Capa_2" data-name="Capa 2"><g id="Capa_1-2" data-name="Capa 1"><path class="cls-1" d="M217.17,65.43H30.91C13.87,65.43,0,50.76,0,32.72S13.87,0,30.91,0H217.17c17,0,30.91,14.68,30.91,32.72S234.21,65.43,217.17,65.43ZM30.91,4.62c-14.49,0-26.29,12.6-26.29,28.1s11.8,28.09,26.29,28.09H217.17c14.49,0,26.29-12.6,26.29-28.09s-11.8-28.1-26.29-28.1Z"/><path class="cls-1" d="M48.81,37a10.25,10.25,0,0,1-1.58,5.17,9.47,9.47,0,0,1-4,3.48,13.85,13.85,0,0,1-6,1.23,11,11,0,0,1-8.7-3.6q-3.18-3.6-3.18-10.17V31.67a17.05,17.05,0,0,1,1.43-7.21,10.89,10.89,0,0,1,4.14-4.78A11.52,11.52,0,0,1,37.14,18a12.07,12.07,0,0,1,8.2,2.69,10.6,10.6,0,0,1,3.53,7.41H42.13a5,5,0,0,0-1.29-3.68,5.3,5.3,0,0,0-3.7-1.12,4,4,0,0,0-3.7,1.89c-.78,1.26-1.2,3.27-1.23,6v2c0,3,.37,5.13,1.12,6.42a4.13,4.13,0,0,0,3.88,1.92,5.2,5.2,0,0,0,3.57-1.09A4.69,4.69,0,0,0,42.09,37Z"/><path class="cls-1" d="M59.41,46.45H52.67V18.4h6.74Z"/><path class="cls-1" d="M87.73,46.45H81L71.07,29V46.45H64.31V18.4h6.76L81,35.85V18.4h6.74Z"/><path class="cls-1" d="M109.6,34.54H99v6.7h12.56v5.21H92.21V18.4h19.35v5.22H99v5.91H109.6Z"/><path class="cls-1" d="M123.36,18.4l6.26,19.51,6.24-19.51h8.9V46.45H138V39.9l.65-13.41-6.78,20h-4.47l-6.8-20,.66,13.43v6.55h-6.76V18.4Z"/><path class="cls-1" d="M157.88,36h6l-3-9.73Zm7.65,5.22h-9.27l-1.61,5.24h-7.23L157.71,18.4h6.36l10.36,28.05h-7.26Z"/><path class="cls-1" d="M194.84,18.4v5.46H186c-3.71,0-6.19,3.46-6.19,8.84,0,5.63,2.48,8.67,6.19,8.67h3.59V32.61h6.71V46.83h3.94v-5h6.91c3.11,0,5.16-1.25,5.16-3.29s-2-3.17-4.73-3.17h-4V29.9h3.67c2.61,0,4.42-1.16,4.42-3.17s-2-3.29-4.93-3.29H201v-5Z"/><path class="cls-1" d="M211,18.4c4.43,1,7.21,4.05,7.21,8.38a7.85,7.85,0,0,1-2.09,5.58,7.84,7.84,0,0,1,2.68,6.18c0,4.29-2.85,7.28-7.42,8.29h11.35V18.4Z"/><path class="cls-1" d="M172.9,32.74c0-7.74,3.69-13,9.48-14.34H163.91l8.36,28.43h10C176.56,45.48,172.9,40.48,172.9,32.74Z"/><circle class="cls-1" cx="211.02" cy="63.12" r="7.24"/></g></g></svg>