<svg xmlns="http://www.w3.org/2000/svg" viewBox="0 0 32 32"><defs><style>.cls-1{fill:#fe4746;}.cls-2{fill:#fff;}</style></defs><g id="Capa_2" data-name="Capa 2"><g id="Capa_1-2" data-name="Capa 1"><circle class="cls-1" cx="16" cy="16" r="16"/><path class="cls-2" d="M15.43,23.29H5.36Q1,23,1.68,16T7,8.67h9.83l-.36,3.56H7.84a1.6,1.6,0,0,0-1.42.7,12.26,12.26,0,0,0-.83,5.43,1.26,1.26,0,0,0,1,1.11H12l.43-4.27h3.75Z"/><path class="cls-2" d="M16.72,19.55h8.66c.45-.05.81-.4,1.09-1a.62.62,0,0,0-.55-.88H20.58L21,14l4.79,0c.6,0,.91-.42.91-1.22-.06-.4-.44-.59-1.15-.56H17.32l.33-3.57h8.64q4.11,0,4.12,3.68a5.65,5.65,0,0,1-1.56,3.49c1.14.76,1.54,2,1.19,3.86q-.9,3.24-4.94,3.65H16.29Z"/></g></g></svg>